<svg xmlns="http://www.w3.org/2000/svg" width="1504" height="126" viewBox="0 0 1504 126">
    <g>
        <path fill="#c20e69" d="M0 0H1504V126H0z" transform="translate(-208 -3693) translate(208 3693)"/>
        <path fill="#ff0068" d="M0 0H191V126H0z" transform="translate(-208 -3693) translate(208 3693)"/>
        <g>
            <g>
                <path fill="none" d="M0 0H92V92H0z" transform="translate(-208 -3693) translate(258 3710.465) translate(0 -.465)"/>
            </g>
            <g>
                <path fill="#fff" d="M78.784 36.553v-7.679L40.392 2 2 28.874v7.678h7.678v34.553H2v7.678h76.784v-7.678h-7.679V36.553zM55.749 63.427H48.07V48.07l-7.678 11.518-7.679-11.518v15.357h-7.678V36.553h7.678l7.679 11.517 7.678-11.517h7.678z" transform="translate(-208 -3693) translate(258 3710.465) translate(7.678 7.473) translate(-2 -2)"/>
            </g>
        </g>
    </g>
</svg>
