<svg xmlns="http://www.w3.org/2000/svg" width="1504" height="126" viewBox="0 0 1504 126">
    <g>
        <path fill="#c20e69" d="M0 0H1504V126H0z" transform="translate(-208 -3238) translate(208 3238)"/>
        <g>
            <path fill="#ff0068" d="M0 0H191V126H0z" transform="translate(-208 -3238) translate(-15 19) translate(224 3219)"/>
            <g>
                <path fill="none" d="M0 0h106.267v106.267H0z" transform="translate(-208 -3238) translate(-15 19) translate(266.733 3228.733)"/>
                <path fill="#fff" d="M72.844 34.994v8.856h17.712v-8.856zm-8.855 29.268c4.251 3.144 9.785 7.306 14.169 10.582 1.771-2.347 3.542-4.738 5.313-7.084-4.383-3.277-9.918-7.439-14.169-10.627-1.771 2.391-3.542 4.782-5.313 7.129zm19.482-53.178C81.7 8.738 79.929 6.347 78.158 4c-4.383 3.277-9.918 7.439-14.169 10.627 1.771 2.347 3.542 4.738 5.313 7.084 4.251-3.188 9.786-7.306 14.169-10.627zM10.856 26.139A8.882 8.882 0 0 0 2 34.994v8.856a8.882 8.882 0 0 0 8.856 8.856h4.428v17.711h8.856V52.706h4.428l22.138 13.283V12.856L28.567 26.139zm50.919 13.283a19.836 19.836 0 0 0-6.642-14.833v29.622a19.669 19.669 0 0 0 6.642-14.789z" transform="translate(-208 -3238) translate(-15 19) translate(266.733 3228.733) translate(6.856 13.711)"/>
            </g>
        </g>
    </g>
</svg>
