<svg xmlns="http://www.w3.org/2000/svg" width="1504" height="126" viewBox="0 0 1504 126">
    <defs>
        <style>
            .cls-5{fill:#fff;fill-rule:evenodd}
        </style>
    </defs>
    <g id="Group_3403" transform="translate(-208 -4148)">
        <path id="Path_6314" fill="#c20e69" d="M0 0h706.784v126H0z" transform="translate(208 4148)"/>
        <path id="Rectangle_3343" fill="#c20e69" d="M0 0H934V126H0z" opacity="0.369" transform="translate(778 4148)"/>
        <path id="Rectangle_3351" fill="#ff0068" d="M0 0H191V126H0z" transform="translate(209 4148)"/>
        <g id="people_alt-24px" transform="translate(263 4170)">
            <g id="Group_3392">
                <path id="Rectangle_3352" fill="none" d="M0 0H83V83H0z"/>
            </g>
            <g id="Group_3398" transform="translate(3.448 13.793)">
                <g id="Group_3397">
                    <g id="Group_3393" transform="translate(54.035 31.483)">
                        <path id="Path_6320" d="M16.67 13.13c4.724 3.207 8.035 7.552 8.035 13.345V36.82H38.5V26.475c0-7.517-12.313-11.966-21.83-13.345z" class="cls-5" transform="translate(-16.67 -13.13)"/>
                    </g>
                    <g id="Group_3394" transform="translate(13.793)">
                        <ellipse id="Ellipse_58" cx="14" cy="13.5" fill="#fff" rx="14" ry="13.5" transform="translate(-.242 .206)"/>
                    </g>
                    <g id="Group_3395" transform="translate(43.69)">
                        <path id="Path_6321" d="M18.256 31.587a13.793 13.793 0 0 0 0-27.587 14.408 14.408 0 0 0-4.586.828 20.62 20.62 0 0 1 4.586 12.966 20.62 20.62 0 0 1-4.586 12.965 14.408 14.408 0 0 0 4.586.828z" class="cls-5" transform="translate(-13.67 -4)"/>
                    </g>
                    <g id="Group_3396" transform="translate(0 31.035)">
                        <path id="Path_6322" d="M28.587 13C19.38 13 1 17.621 1 26.793v10.345h55.173V26.793C56.173 17.621 37.794 13 28.587 13z" class="cls-5" transform="translate(-1 -13)"/>
                    </g>
                </g>
            </g>
        </g>
    </g>
</svg>
