<svg xmlns="http://www.w3.org/2000/svg" width="1504" height="127" viewBox="0 0 1504 127">
    <g>
        <path fill="#c20e69" d="M0 0h706.784v126H0z" transform="translate(-208 -4376) translate(208 4377)"/>
        <path fill="#c20e69" d="M0 0H916V126H0z" opacity="0.369" transform="translate(-208 -4376) translate(796 4377)"/>
        <path fill="#ff0068" d="M0 0H191V126H0z" transform="translate(-208 -4376) translate(209 4376)"/>
        <g>
            <path fill="none" d="M0 0h76.168v76.168H0z" transform="translate(-208 -4376) translate(266 4402)"/>
            <path fill="#fff" d="M72.994 30.595l-15.868-.032a3.183 3.183 0 0 0-3.174 3.174V62.3a3.183 3.183 0 0 0 3.174 3.174h15.868a3.183 3.183 0 0 0 3.174-3.174V33.737a3.156 3.156 0 0 0-3.174-3.142zm0 28.531H57.126V36.91h15.868zM63.473 2H6.347A6.325 6.325 0 0 0 0 8.347v38.084a6.346 6.346 0 0 0 6.347 6.347h22.216v6.347h-6.347v6.347H47.6v-6.346h-6.342v-6.348H47.6v-6.347H6.347V8.347h57.126v15.869h6.347V8.347A6.346 6.346 0 0 0 63.473 2zM37.989 24.216l-3.079-9.521-3.078 9.521h-9.616l7.839 5.584-2.983 9.235 7.839-5.713 7.839 5.713-2.984-9.235 7.834-5.584z" transform="translate(-208 -4376) translate(266 4402) translate(0 4.347)"/>
        </g>
    </g>
</svg>
