<svg xmlns="http://www.w3.org/2000/svg" width="261.162" height="83.81" viewBox="0 0 261.162 83.81">
    <defs>
        <style>
            .cls-1{fill:#fff;fill-rule:evenodd}
        </style>
    </defs>
    <g id="Group_3299" transform="translate(-306 -530)">
        <g id="Group" transform="translate(306 530)">
            <path id="Combined-Shape" d="M60.6.059L60.732 0v38.774l-.134.059v.031l-6.181 2.68-1.237.543V41.7l-8.38-3.68 8.376-3.7v-7.582l-17.123 7.45-9.093-3.953 26.22-11.419v-7.572L9.053 30.491 0 26.541 60.6 0z" class="cls-1"/>
            <path id="Combined-Shape-2" d="M53.023 177.77v-7.6L0 146.985l9.26-4.053 51.34 22.435v8.118l-.023-.01v7.594l.023.01V189l-.023-.01v7.325l.023.01v7.925L.338 177.942v-7.937l52.685 23.015v-7.32l-52.684-23v-7.937z" class="cls-1" transform="translate(0 -120.444)"/>
        </g>
        <path id="LEAD" fill="#fff" stroke="#fff" stroke-width="5px" d="M704 344.3V310h4.291v30.727h27.176v3.573zm40.278 0V310h34.3v3.573h-30.012v11.433h28.583v3.573h-28.583v12.148h30.012v3.573zm76.606-7.86H793.7l-4.292 7.86H784.4l20.03-34.3h5.723l20.031 34.3h-5.008zm-2.185-3.625l-11.407-19.982-11.407 19.982zm45.968 7.867q2.837 0 4.8-.157a12 12 0 0 0 3.239-.638 4.282 4.282 0 0 0 1.966-1.4 6.127 6.127 0 0 0 1.016-2.429 20.566 20.566 0 0 0 .38-3.716q.056-2.2.056-5.271t-.056-5.271a20.565 20.565 0 0 0-.38-3.716 6.127 6.127 0 0 0-1.016-2.429 4.283 4.283 0 0 0-1.966-1.4 11.972 11.972 0 0 0-3.228-.638q-1.955-.157-4.814-.157h-21.421v27.219zM839 344.3V310h25.662a40.229 40.229 0 0 1 6.61.458 14.635 14.635 0 0 1 4.437 1.4 7.353 7.353 0 0 1 2.7 2.345 9.751 9.751 0 0 1 1.382 3.316 22.834 22.834 0 0 1 .513 4.31q.078 2.4.078 5.326t-.078 5.326a22.834 22.834 0 0 1-.513 4.31 9.751 9.751 0 0 1-1.391 3.309 7.353 7.353 0 0 1-2.7 2.345 14.635 14.635 0 0 1-4.437 1.4 40.229 40.229 0 0 1-6.61.458z" transform="translate(-315.713 244.859)"/>
    </g>
</svg>
