<svg xmlns="http://www.w3.org/2000/svg" width="107.996" height="108" viewBox="0 0 107.996 108">
  <g id="iconfinder_instagram_1632517" transform="translate(0 0.018)">
    <g id="Background_1_" transform="translate(0 -0.018)">
      <path id="Path_6309" data-name="Path 6309" d="M0,52.613v2.911c.759,27.927,23.245,50.349,50.012,52.458h8.226A54.482,54.482,0,0,0,108,55.482V52.613A54.393,54.393,0,0,0,56.825.049C27.168-1.448.823,22.345,0,52.613Z" transform="translate(0 0.018)" fill="#fff"/>
    </g>
    <g id="Symbol" transform="translate(22.063 21.206)">
      <g id="Group_3388" data-name="Group 3388">
        <path id="Path_6310" data-name="Path 6310" d="M136.788,106.506c8.606,0,9.618.021,13.035.19a17.218,17.218,0,0,1,5.969,1.118,9.928,9.928,0,0,1,3.691,2.447,10.385,10.385,0,0,1,2.426,3.755,19.046,19.046,0,0,1,1.118,6.1c.169,3.459.19,4.493.19,13.246s-.021,9.787-.19,13.246a17.507,17.507,0,0,1-1.118,6.1,10.115,10.115,0,0,1-2.426,3.755,9.928,9.928,0,0,1-3.691,2.447,16.833,16.833,0,0,1-5.969,1.118c-3.4.169-4.43.19-13.035.19s-9.618-.021-13.035-.19a17.219,17.219,0,0,1-5.969-1.118,9.928,9.928,0,0,1-3.691-2.447,10.384,10.384,0,0,1-2.426-3.755,19.046,19.046,0,0,1-1.118-6.1c-.169-3.459-.19-4.493-.19-13.246s.021-9.787.19-13.246a17.506,17.506,0,0,1,1.118-6.1,10.115,10.115,0,0,1,2.426-3.755,9.928,9.928,0,0,1,3.691-2.447,16.834,16.834,0,0,1,5.969-1.118c3.4-.148,4.43-.19,13.035-.19m0-5.906c-8.754,0-9.85.042-13.268.211a23.855,23.855,0,0,0-7.826,1.519,15.435,15.435,0,0,0-5.7,3.8,16.075,16.075,0,0,0-3.712,5.822,23.981,23.981,0,0,0-1.5,7.952c-.169,3.48-.19,4.6-.19,13.5s.042,10.019.19,13.5a25.237,25.237,0,0,0,1.5,7.952A16.254,16.254,0,0,0,110,160.673a15.783,15.783,0,0,0,5.7,3.8,22.805,22.805,0,0,0,7.826,1.519c3.438.169,4.535.211,13.268.211s9.85-.042,13.268-.211a23.855,23.855,0,0,0,7.826-1.519,15.435,15.435,0,0,0,5.7-3.8,16.075,16.075,0,0,0,3.712-5.822,23.981,23.981,0,0,0,1.5-7.952c.169-3.48.19-4.6.19-13.5s-.042-10.019-.19-13.5a25.237,25.237,0,0,0-1.5-7.952,16.254,16.254,0,0,0-3.712-5.822,15.783,15.783,0,0,0-5.7-3.8,22.805,22.805,0,0,0-7.826-1.519c-3.417-.169-4.535-.211-13.268-.211Z" transform="translate(-104.6 -100.6)" fill="#88124e"/>
        <path id="Path_6311" data-name="Path 6311" d="M195.337,176.2a16.835,16.835,0,1,0,16.537,16.832A16.669,16.669,0,0,0,195.337,176.2Zm0,27.758a10.928,10.928,0,1,1,10.736-10.926A10.822,10.822,0,0,1,195.337,203.958Z" transform="translate(-163.149 -160.254)" fill="#88124e"/>
        <ellipse id="Ellipse_57" data-name="Ellipse 57" cx="3.86" cy="3.923" rx="3.86" ry="3.923" transform="translate(45.519 11.348)" fill="#88124e"/>
      </g>
    </g>
  </g>
</svg>
