<svg height="47.618" viewBox="0 0 47.618 47.618" width="47.618" xmlns="http://www.w3.org/2000/svg"><path d="m0 0h47.618v47.618h-47.618z" fill="none"/><path d="m31.777 14.889h-1.984v-3.969a9.92 9.92 0 0 0 -19.841 0v3.968h-1.984a3.98 3.98 0 0 0 -3.968 3.969v19.843a3.98 3.98 0 0 0 3.968 3.968h23.809a3.98 3.98 0 0 0 3.968-3.968v-19.843a3.98 3.98 0 0 0 -3.968-3.968zm-11.9 17.857a3.968 3.968 0 1 1 3.968-3.968 3.98 3.98 0 0 1 -3.972 3.967zm6.151-17.857h-12.3v-3.969a6.151 6.151 0 0 1 12.3 0z" fill="#fff" transform="translate(3.936 .984)"/></svg>