<svg height="83.81" viewBox="0 0 60.732 83.81" width="60.732" xmlns="http://www.w3.org/2000/svg"><g fill="#fff" fill-rule="evenodd"><path d="m60.6.059.132-.059v38.774l-.134.059v.031l-6.181 2.68-1.237.543v-.387l-8.38-3.68 8.376-3.7v-7.582l-17.123 7.45-9.093-3.953 26.22-11.419v-7.572l-44.127 19.247-9.053-3.95 60.6-26.541z"/><path d="m53.023 177.77v-7.6l-53.023-23.185 9.26-4.053 51.34 22.435v8.118l-.023-.01v7.594l.023.01v7.921l-.023-.01v7.325l.023.01v7.925l-60.262-26.308v-7.937l52.685 23.015v-7.32l-52.684-23v-7.937z" transform="translate(0 -120.444)"/></g></svg>