<svg height="106.467" viewBox="0 0 106.467 106.467" width="106.467" xmlns="http://www.w3.org/2000/svg"><path d="m0 0h106.467v106.467h-106.467z" fill="none"/><path d="m80.85 48.361v-35.489a8.9 8.9 0 0 0 -8.872-8.872h-62.106a8.9 8.9 0 0 0 -8.872 8.872v35.489a8.9 8.9 0 0 0 8.872 8.872h62.106a8.9 8.9 0 0 0 8.872-8.872zm-39.925-4.436a13.308 13.308 0 1 1 13.308-13.308 13.291 13.291 0 0 1 -13.308 13.308zm57.67-26.617v48.8a8.9 8.9 0 0 1 -8.872 8.872h-75.415v-8.874h75.414v-48.8z" fill="#fff" transform="translate(3.436 13.744)"/></svg>