<svg id="payments-24px" xmlns="http://www.w3.org/2000/svg" width="106.467" height="106.467" viewBox="0 0 106.467 106.467">
  <path id="Path_6297" data-name="Path 6297" d="M0,0H106.467V106.467H0Z" fill="none"/>
  <path id="Path_6298" data-name="Path 6298" d="M80.85,48.361V12.872A8.9,8.9,0,0,0,71.978,4H9.872A8.9,8.9,0,0,0,1,12.872V48.361a8.9,8.9,0,0,0,8.872,8.872H71.978A8.9,8.9,0,0,0,80.85,48.361ZM40.925,43.925A13.308,13.308,0,1,1,54.233,30.617,13.291,13.291,0,0,1,40.925,43.925Zm57.67-26.617v48.8a8.9,8.9,0,0,1-8.872,8.872H14.308V66.106H89.722v-48.8Z" transform="translate(3.436 13.744)" fill="#fff"/>
</svg>
