<svg height="108" viewBox="0 0 108 108" width="108" xmlns="http://www.w3.org/2000/svg"><path d="m54 108a54.006 54.006 0 0 1 -54-54 54.006 54.006 0 0 1 54-54 54.006 54.006 0 0 1 54 54 54.006 54.006 0 0 1 -54 54z" fill="#fff"/><path d="m215.341 241.78a5.627 5.627 0 1 1 5.627-5.627 5.637 5.637 0 0 1 -5.627 5.627m.994 9.234c-3.845 3.834-11.2 4.136-13.36 4.136s-9.526-.3-13.36-4.136a1.459 1.459 0 0 1 2.063-2.063c2.419 2.419 7.592 3.283 11.3 3.283s8.878-.864 11.3-3.283a1.454 1.454 0 0 1 2.063 0 1.473 1.473 0 0 1 0 2.063m-31.381-14.86a5.627 5.627 0 1 1 5.627 5.627 5.637 5.637 0 0 1 -5.627-5.627m54-5.627a7.867 7.867 0 0 0 -13.338-5.659c-5.378-3.888-12.8-6.394-21.06-6.685l3.586-16.88 11.718 2.495a5.629 5.629 0 1 0 .572-2.754l-13.09-2.786a1.4 1.4 0 0 0 -1.058.194 1.387 1.387 0 0 0 -.6.886l-3.931 18.522a1.517 1.517 0 0 0 0 .313c-8.413.216-15.973 2.732-21.438 6.674a7.87 7.87 0 1 0 -8.662 12.863 15.82 15.82 0 0 0 -.184 2.387c0 12.118 14.1 21.935 31.5 21.935s31.5-9.817 31.5-21.935a15.644 15.644 0 0 0 -.184-2.365 7.909 7.909 0 0 0 4.666-7.2" fill="#7a1149" transform="translate(-148.964 -176.527)"/></svg>