<svg height="24.67" viewBox="0 0 24.67 24.67" width="24.67" xmlns="http://www.w3.org/2000/svg"><g fill="#fff"><path d="m16.96 0h-9.251a7.71 7.71 0 0 0 -7.709 7.709v9.251a7.71 7.71 0 0 0 7.709 7.71h9.251a7.71 7.71 0 0 0 7.71-7.71v-9.251a7.71 7.71 0 0 0 -7.71-7.709zm5.4 16.96a5.4 5.4 0 0 1 -5.4 5.4h-9.251a5.4 5.4 0 0 1 -5.4-5.4v-9.251a5.4 5.4 0 0 1 5.4-5.4h9.251a5.4 5.4 0 0 1 5.4 5.4z"/><path d="m134.167 128a6.167 6.167 0 1 0 6.167 6.167 6.168 6.168 0 0 0 -6.167-6.167zm0 10.022a3.855 3.855 0 1 1 3.855-3.855 3.86 3.86 0 0 1 -3.855 3.855z" transform="translate(-121.833 -121.833)"/><circle cx="18.965" cy="5.705" r=".822"/></g></svg>