<svg height="183.252" viewBox="0 0 183.252 183.252" width="183.252" xmlns="http://www.w3.org/2000/svg"><path d="m0 0h183.252v183.252h-183.252z" fill="none"/><path d="m138.439 80.355v-61.084a15.316 15.316 0 0 0 -15.271-15.271h-106.897a15.316 15.316 0 0 0 -15.271 15.271v61.084a15.316 15.316 0 0 0 15.271 15.271h106.9a15.316 15.316 0 0 0 15.268-15.271zm-68.72-7.636a22.906 22.906 0 1 1 22.907-22.906 22.876 22.876 0 0 1 -22.907 22.906zm99.261-45.813v83.994a15.316 15.316 0 0 1 -15.271 15.271h-129.803v-15.271h129.8v-83.994z" fill="#fff" transform="translate(6.635 26.542)"/></svg>