<svg height="147.454" viewBox="0 0 147.454 147.454" width="147.454" xmlns="http://www.w3.org/2000/svg"><path d="m0 0h147.454v147.454h-147.454z" fill="none"/><path d="m113.591 95.159v6.141a12.324 12.324 0 0 1 -12.291 12.291h-86.012a12.284 12.284 0 0 1 -12.288-12.291v-86.012a12.284 12.284 0 0 1 12.288-12.288h86.012a12.324 12.324 0 0 1 12.288 12.288v6.144h-55.288a12.284 12.284 0 0 0 -12.293 12.288v49.151a12.284 12.284 0 0 0 12.293 12.288zm-55.291-12.288h61.439v-49.151h-61.439zm24.576-15.36a9.216 9.216 0 1 1 9.211-9.211 9.2 9.2 0 0 1 -9.216 9.211z" fill="#fff" transform="translate(15.432 15.432)"/></svg>