<svg height="108" viewBox="0 0 108 108" width="108" xmlns="http://www.w3.org/2000/svg"><circle cx="54" cy="54" fill="#fff" r="54"/><path d="m111.889 166.152c-2.595 2.51-5.147 5-7.7 7.488a4.037 4.037 0 0 1 -3.164 1.287 1.609 1.609 0 0 1 -1.624-1.245c-1.941-6.033-3.923-12.066-5.864-18.12a1.415 1.415 0 0 0 -1.055-1.055c-4.577-1.392-9.176-2.827-13.732-4.282a8 8 0 0 1 -2.025-.928 1.438 1.438 0 0 1 -.232-2.426 9.062 9.062 0 0 1 2.679-1.666c5.611-2.215 11.243-4.366 16.875-6.539q21.421-8.258 42.841-16.538c2.721-1.055 4.809.422 4.514 3.375a56.66 56.66 0 0 1 -1.055 5.59q-4.651 21.959-9.323 43.938c-.738 3.48-3.185 4.387-6.033 2.278q-7.182-5.284-14.365-10.61c-.226-.189-.463-.358-.737-.547zm-10.758 4.448c.063-.021.105-.021.169-.042.021-.148.063-.274.084-.4.316-3.312.633-6.645.907-9.956a2.511 2.511 0 0 1 .865-1.772c4.409-3.945 8.817-7.931 13.2-11.9q7.309-6.581 14.6-13.184a4.407 4.407 0 0 0 .633-1.118 4.438 4.438 0 0 0 -1.371-.127 6.008 6.008 0 0 0 -1.6.8q-16.105 10.157-32.231 20.313a.956.956 0 0 0 -.485 1.371c.8 2.278 1.519 4.577 2.257 6.877.989 3.044 1.981 6.103 2.972 9.138z" fill="#80114b" transform="translate(-59.914 -96.099)"/></svg>