<svg height="59" viewBox="0 0 59 59" width="59" xmlns="http://www.w3.org/2000/svg"><path d="m29.5 59a29.507 29.507 0 0 1 -11.481-56.682 29.508 29.508 0 0 1 22.964 54.363 29.318 29.318 0 0 1 -11.483 2.319zm-12.909-20.745a15.424 15.424 0 0 0 8.121 2.3 15.725 15.725 0 0 0 6.466-1.324 14.244 14.244 0 0 0 4.725-3.42 14.777 14.777 0 0 0 3.883-9.816c0-.2-.006-.418-.017-.661a10.489 10.489 0 0 0 2.644-2.649 10.873 10.873 0 0 1 -3.043.8 5.155 5.155 0 0 0 2.33-2.829 10.772 10.772 0 0 1 -3.367 1.244 5.413 5.413 0 0 0 -3.866-1.616 5.213 5.213 0 0 0 -5.294 5.116 5.026 5.026 0 0 0 .136 1.168 15.323 15.323 0 0 1 -6.132-1.591 14.948 14.948 0 0 1 -4.79-3.755 4.994 4.994 0 0 0 -.715 2.571 5.063 5.063 0 0 0 2.357 4.259 5.378 5.378 0 0 1 -2.4-.639v.064a5.178 5.178 0 0 0 4.249 5.023 5.542 5.542 0 0 1 -1.4.177 5.641 5.641 0 0 1 -1-.09 5.279 5.279 0 0 0 4.949 3.552 10.811 10.811 0 0 1 -6.578 2.191 11.658 11.658 0 0 1 -1.258-.075z" fill="#fff"/></svg>