<svg height="44.052" viewBox="0 0 44.052 44.052" width="44.052" xmlns="http://www.w3.org/2000/svg"><path d="m0 0h44.052v44.052h-44.052z" fill="none"/><path d="m18.684 30.368a3.671 3.671 0 1 0 -3.671-3.668 3.682 3.682 0 0 0 3.671 3.668zm11.016-16.52h-1.839v-3.671a9.177 9.177 0 0 0 -18.355 0h3.487a5.69 5.69 0 0 1 11.38 0v3.671h-16.702a3.682 3.682 0 0 0 -3.671 3.671v18.355a3.682 3.682 0 0 0 3.671 3.671h22.029a3.682 3.682 0 0 0 3.671-3.671v-18.355a3.682 3.682 0 0 0 -3.671-3.671z" fill="#fff" transform="translate(3.342 .835)"/></svg>